<svg width="59" height="34" viewBox="0 0 59 34" fill="none" xmlns="http://www.w3.org/2000/svg">
<path d="M18.7787 17.2026C18.7787 22.2559 18.7547 27.3079 18.8014 32.3599C18.8094 33.2572 18.5561 33.4292 17.7281 33.2906C12.1614 32.3639 6.58939 31.4586 1.01605 30.5772C0.304053 30.4639 0.0360524 30.2572 0.0400524 29.4559C0.0787191 21.2079 0.0840528 12.9599 0.0347195 4.71325C0.0293861 3.79325 0.438718 3.66791 1.12938 3.55858C6.66005 2.67191 12.1907 1.77858 17.7174 0.863911C18.5161 0.731911 18.8121 0.861244 18.8041 1.78658C18.7521 6.92524 18.7787 12.0639 18.7787 17.2026Z" fill="#008541"/>
<path d="M32.7272 17.0274C32.7272 20.87 32.6992 24.7127 32.7459 28.554C32.7592 29.5794 32.4059 29.9167 31.3979 29.9034C27.9459 29.8607 24.4912 29.8687 21.0379 29.9007C20.3379 29.9074 19.9752 29.774 20.0752 28.99C20.1299 28.566 20.1179 28.1247 20.0779 27.6967C20.0246 27.134 20.2379 26.922 20.8019 26.942C21.6646 26.9714 22.5312 26.9047 23.3912 26.9647C24.1966 27.0207 24.4979 26.718 24.3926 25.93C24.3526 25.634 24.3472 25.3207 24.3926 25.026C24.5286 24.1274 24.1939 23.7847 23.2686 23.8727C22.4552 23.95 21.6299 23.882 20.8099 23.8927C20.3766 23.898 20.0632 23.8514 20.0699 23.2767C20.0766 22.6794 20.4446 22.698 20.8472 22.6994C21.7112 22.702 22.5779 22.662 23.4379 22.714C24.1526 22.758 24.4046 22.5514 24.4072 21.786C24.4152 19.7034 24.4552 19.7034 22.3952 19.7034C21.9219 19.7034 21.4472 19.7034 20.9712 19.7047C20.5472 19.7047 20.0952 19.814 20.0699 19.122C20.0446 18.4367 20.4712 18.4927 20.9112 18.4954C21.7752 18.498 22.6406 18.4634 23.5019 18.5074C24.1486 18.5407 24.3912 18.3647 24.4059 17.654C24.4526 15.4314 24.4886 15.4327 22.2806 15.4327C21.7619 15.4327 21.2432 15.4354 20.7259 15.4314C20.3806 15.4287 20.0366 15.4647 20.0646 14.9167C20.0899 14.4194 20.3806 14.3794 20.7552 14.3807C21.6619 14.3847 22.5712 14.3367 23.4739 14.3967C24.2352 14.4474 24.4006 14.15 24.4032 13.4354C24.4126 11.3487 24.4459 11.3487 22.3939 11.3487C21.8766 11.35 21.3592 11.342 20.8406 11.3527C20.4339 11.3607 20.0739 11.3954 20.0632 10.79C20.0552 10.2114 20.3686 10.182 20.7966 10.1874C21.7032 10.198 22.6126 10.1554 23.5152 10.202C24.1846 10.238 24.3939 10.026 24.4046 9.33271C24.4432 7.11671 24.4766 7.11671 22.2526 7.11671H21.8632C20.1606 7.11804 19.5859 6.28071 20.0806 4.60337C20.2046 4.17937 20.4752 4.21004 20.7672 4.21004C24.4366 4.20604 28.1059 4.22204 31.7752 4.20071C32.7646 4.19404 32.7326 4.81404 32.7312 5.5007C32.7232 9.34337 32.7272 13.1847 32.7272 17.0274Z" fill="#008540"/>
<path d="M13.9258 22.9979C13.7938 23.0766 13.7605 23.1126 13.7272 23.1139C11.1658 23.1646 11.1578 23.1673 10.1605 20.8299C9.81384 20.0153 9.50984 19.1806 9.12851 18.2059C8.58717 19.4899 8.08184 20.6926 7.57117 21.8939C7.29517 22.5433 5.30317 23.0486 4.81117 22.5766C4.50451 22.2819 4.83117 22.0313 4.95517 21.7859C5.65117 20.4033 6.30984 18.9993 7.07651 17.6566C7.49784 16.9206 7.60051 16.3273 7.17117 15.5353C6.45517 14.2179 5.90317 12.8113 5.24184 11.4633C4.92051 10.8059 4.79384 10.5406 5.77917 10.3646C7.17651 10.1153 7.81784 10.5019 8.12851 11.8619C8.34451 12.8073 8.80984 13.6966 9.21251 14.7419C9.61917 13.7326 9.95784 12.8619 10.3178 12.0006C11.2325 9.8046 11.2352 9.80593 13.8458 10.0619C12.9178 11.9793 12.0338 13.8753 11.0805 15.7366C10.7938 16.2966 10.8032 16.7073 11.0925 17.2633C12.0765 19.1579 12.9898 21.0899 13.9258 22.9979Z" fill="#FDFEFE"/>
<path d="M27.9148 10.192H27.6561C25.4508 10.192 25.1534 9.80668 25.5174 7.61735C25.6028 7.10668 25.8801 7.11602 26.2321 7.11602C27.3534 7.11468 28.4761 7.15202 29.5961 7.10268C30.3108 7.07202 30.4428 7.38668 30.4641 8.02002C30.5361 10.192 30.5588 10.192 27.9148 10.192Z" fill="#FBFDFC"/>
<path d="M27.9565 14.3862C27.6538 14.3862 27.3445 14.3422 27.0511 14.3942C25.7885 14.6182 25.4858 14.1075 25.4898 12.8635C25.4925 11.6089 25.8285 11.1689 27.0778 11.3249C27.8858 11.4262 28.7178 11.3689 29.5378 11.3355C30.1591 11.3089 30.4498 11.4475 30.4738 12.1769C30.5431 14.3875 30.5805 14.3862 27.9565 14.3862Z" fill="#F8FBFA"/>
<path d="M27.7975 15.4304C28.2602 15.4304 28.5709 15.4758 28.8629 15.4224C30.1789 15.1811 30.5015 15.7078 30.5055 17.0118C30.5082 18.2971 30.1335 18.6958 28.9175 18.5104C28.4122 18.4331 27.8842 18.4971 27.3669 18.4971C25.5402 18.4971 25.6082 18.4944 25.5269 16.6718C25.4255 14.3544 27.1989 15.9331 27.7975 15.4304Z" fill="#FBFCFC"/>
<path d="M27.9344 26.9551H27.5477C25.5264 26.9551 25.1064 26.3911 25.5291 24.3871C25.6517 23.8097 26.0171 23.8897 26.3877 23.8871C27.4624 23.8804 28.5384 23.9231 29.6104 23.8711C30.3077 23.8391 30.4571 24.1084 30.4704 24.7604C30.5131 26.9551 30.5397 26.9551 27.9344 26.9551Z" fill="#F8FBFA"/>
<path d="M27.974 22.7026C27.63 22.7026 27.2794 22.6572 26.9434 22.7106C25.8487 22.8839 25.43 22.5426 25.5154 21.3479C25.646 19.5092 25.3234 19.7172 27.1967 19.7026C27.626 19.6999 28.0567 19.7026 28.486 19.7026C30.5394 19.7026 30.8167 20.0746 30.462 22.1719C30.382 22.6452 30.1594 22.7106 29.7794 22.7052C29.178 22.6959 28.5754 22.7026 27.974 22.7026Z" fill="#FCFDFD"/>
<path d="M21.9103 10.192H21.6517C19.4477 10.192 19.149 9.80668 19.513 7.61735C19.5983 7.10668 19.8757 7.11602 20.2277 7.11602C21.3503 7.11468 22.473 7.15202 23.593 7.10268C24.3063 7.07202 24.4383 7.38668 24.4597 8.02002C24.5317 10.192 24.5557 10.192 21.9103 10.192Z" fill="#FBFDFC"/>
<path d="M21.9525 14.3862C21.6499 14.3862 21.3405 14.3422 21.0472 14.3942C19.7845 14.6182 19.4819 14.1075 19.4859 12.8635C19.4885 11.6089 19.8245 11.1689 21.0739 11.3249C21.8819 11.4262 22.7139 11.3689 23.5339 11.3355C24.1552 11.3089 24.4459 11.4475 24.4699 12.1769C24.5392 14.3875 24.5765 14.3862 21.9525 14.3862Z" fill="#F8FBFA"/>
<path d="M21.7938 15.4304C22.2564 15.4304 22.5671 15.4758 22.8591 15.4224C24.1751 15.1811 24.4978 15.7078 24.5018 17.0118C24.5044 18.2971 24.1298 18.6958 22.9138 18.5104C22.4084 18.4331 21.8804 18.4971 21.3631 18.4971C19.5364 18.4971 19.6044 18.4944 19.5231 16.6718C19.4218 14.3544 21.1951 15.9331 21.7938 15.4304Z" fill="#FBFCFC"/>
<path d="M21.9304 26.9551H21.5424C19.5224 26.9551 19.1024 26.3911 19.5251 24.3871C19.6477 23.8097 20.0131 23.8897 20.3837 23.8871C21.4584 23.8804 22.5344 23.9231 23.6064 23.8711C24.3037 23.8391 24.4531 24.1084 24.4651 24.7604C24.5091 26.9551 24.5357 26.9551 21.9304 26.9551Z" fill="#F8FBFA"/>
<path d="M21.9701 22.7026C21.6261 22.7026 21.2755 22.6572 20.9395 22.7106C19.8448 22.8839 19.4261 22.5426 19.5115 21.3479C19.6421 19.5092 19.3195 19.7172 21.1928 19.7026C21.6221 19.6999 22.0528 19.7026 22.4821 19.7026C24.5355 19.7026 24.8128 20.0746 24.4581 22.1719C24.3781 22.6452 24.1555 22.7106 23.7755 22.7052C23.1741 22.6959 22.5715 22.7026 21.9701 22.7026Z" fill="#FCFDFD"/>
<path d="M58.3283 16.7026C58.3283 22.8586 53.3376 27.8479 47.1829 27.8479C41.0269 27.8479 36.0376 22.8586 36.0376 16.7026C36.0376 10.5466 41.0269 5.55723 47.1829 5.55723C53.3376 5.55723 58.3283 10.5466 58.3283 16.7026Z" fill="#008541"/>
<path d="M41.4606 22.6543H52.9059V22.3103C52.9059 22.077 52.9059 22.077 52.6699 22.077C49.0019 22.0783 45.3339 22.0796 41.6673 22.081C41.6286 22.081 41.5873 22.0716 41.5553 22.085C41.5193 22.0996 41.4659 22.1356 41.4646 22.1636C41.4566 22.3236 41.4606 22.4836 41.4606 22.6543ZM45.0993 15.6743H41.7913C43.5526 17.4583 45.3193 19.2436 47.0953 21.0436C48.8819 19.2343 50.6499 17.445 52.4086 15.6636H49.1113V10.7503H45.0993V15.6743Z" fill="#F6F6F6"/>
</svg>
