<svg width="66" height="67" viewBox="0 0 66 67" fill="none" xmlns="http://www.w3.org/2000/svg">
<path d="M65.7097 33.6145C65.7097 51.6412 51.0964 66.2545 33.0697 66.2545C15.043 66.2545 0.429688 51.6412 0.429688 33.6145C0.429688 15.5878 15.043 0.974516 33.0697 0.974516C51.0964 0.974516 65.7097 15.5878 65.7097 33.6145Z" fill="#1085C6"/>
<path d="M62.9292 33.6145C62.9292 50.1052 49.5612 63.4745 33.0692 63.4745C16.5785 63.4745 3.21051 50.1052 3.21051 33.6145C3.21051 17.1239 16.5785 3.75455 33.0692 3.75455C49.5612 3.75455 62.9292 17.1239 62.9292 33.6145Z" fill="#E7E7E7"/>
<path d="M15.9676 40.7682C14.6596 40.7682 14.6596 38.7402 15.9676 38.7402C17.2742 38.7402 17.2742 40.7682 15.9676 40.7682ZM17.3569 37.2309H15.6889C14.3609 37.2309 13.2849 38.1936 13.2849 39.3802V45.5909C13.2849 46.7776 14.3609 47.7402 15.6889 47.7402H17.3569C18.6849 47.7402 19.7609 46.7776 19.7609 45.5909V39.3802C19.7609 38.1936 18.6849 37.2309 17.3569 37.2309Z" fill="#1085C6"/>
<path d="M18.4122 36.2252C16.7855 36.4425 15.9589 36.1439 14.9962 35.4132C14.4642 35.0065 13.9722 34.6145 13.8282 33.8265C13.6615 32.9252 13.8335 32.3759 14.7575 32.4092C15.5722 32.4385 16.3882 32.4145 17.2042 32.4145C17.9349 32.4105 18.6669 32.4479 19.3935 32.4012C20.2615 32.3452 20.6202 32.7212 20.6322 33.7612C20.6522 35.8412 21.0682 37.4719 18.4122 36.2252ZM15.9669 40.7679C14.6589 40.7679 14.6589 38.7399 15.9669 38.7399C17.2749 38.7399 17.2749 40.7679 15.9669 40.7679ZM17.2415 24.3919C17.2949 24.1532 17.3455 23.9119 17.4042 23.6732C18.2655 20.1919 18.7762 19.5412 21.8989 19.3745C28.0975 19.0425 34.3029 18.9585 40.5069 19.3625C41.5495 19.4292 42.2015 19.9132 42.4655 21.1012C42.7322 22.2999 43.0189 23.4945 43.3522 24.6705C43.6989 25.8972 43.2175 26.1265 42.2749 26.0745C38.8735 25.8865 35.4722 25.6332 32.2029 25.8092C27.4882 25.5972 22.9269 26.1545 18.3535 26.0879C16.9202 26.0665 16.8749 26.0199 17.2415 24.3919ZM33.6349 38.9799C33.6349 37.9359 33.7762 36.9199 34.0415 35.9492C32.7842 36.1799 31.5255 36.4425 30.2829 36.4425C28.0455 36.4425 25.8575 35.5532 23.6215 35.6132C22.5509 35.6412 22.1802 35.1639 22.1882 33.9572C22.1949 32.8172 22.5335 32.3839 23.5482 32.3932C27.5895 32.4305 31.6322 32.4359 35.6735 32.4039C37.8189 29.2425 41.4402 27.1332 45.4802 27.1332C46.1362 27.1332 46.7815 27.1919 47.4122 27.2985C47.7989 26.4785 48.9095 26.5292 49.6349 26.0785C50.6935 25.4212 50.8535 23.7065 49.9242 23.0119C48.5415 21.9812 46.5682 22.4372 45.6482 24.0985C44.8042 22.6412 44.3909 21.0225 43.8202 19.4945C43.1549 17.7172 42.1095 16.8185 40.3335 16.8345C33.9962 16.8932 27.6602 16.7399 21.3242 17.1105C17.6349 17.3265 17.6255 17.2119 16.2295 21.2372C15.8002 22.4799 15.3975 23.7345 14.8895 25.2625C14.4789 22.5652 13.9522 22.1559 11.8655 22.6012C11.7389 22.6279 11.6149 22.6719 11.4882 22.6999C10.7695 22.8639 10.1362 23.1559 10.0589 24.1359C9.9762 25.1692 10.4749 25.8225 11.2322 26.2292C11.8162 26.5425 12.4255 26.8012 13.0362 27.0385C13.7669 27.3239 13.8335 27.7519 13.4349 28.4799C12.8869 29.4799 12.2375 30.4585 12.1322 31.6825C11.8589 34.8399 11.7695 38.0025 12.1189 41.1625C12.2135 42.0172 12.4935 42.6785 13.3575 42.7772C15.7589 43.0519 18.1535 43.4065 20.5589 43.6145C25.2922 44.0212 30.0322 44.0545 34.7735 43.9825C34.0455 42.4559 33.6349 40.7585 33.6349 38.9799Z" fill="#1085C6"/>
<path d="M56.4683 39.1374C56.4683 45.0867 51.6456 49.9094 45.6976 49.9094C39.7483 49.9094 34.9256 45.0867 34.9256 39.1374C34.9256 33.1894 39.7483 28.3667 45.6976 28.3667C51.6456 28.3667 56.4683 33.1894 56.4683 39.1374Z" fill="#F6F6F6"/>
<path d="M56.4683 39.1374C56.4683 45.0867 51.6456 49.9094 45.6976 49.9094C39.7483 49.9094 34.9256 45.0867 34.9256 39.1374C34.9256 33.1894 39.7483 28.3667 45.6976 28.3667C51.6456 28.3667 56.4683 33.1894 56.4683 39.1374Z" stroke="#1085C6" stroke-width="0.756"/>
<path d="M52.8582 40.3431H46.7489V46.4524H44.7409V40.3431H38.6329V38.4084H44.7409V32.2991H46.7489V38.4084H52.8582V40.3431Z" fill="#1085C6"/>
</svg>
