<svg width="72" height="73" viewBox="0 0 72 73" fill="none" xmlns="http://www.w3.org/2000/svg">
<path d="M70.2097 36.6145C70.2097 55.4696 54.9248 70.7545 36.0697 70.7545C17.2146 70.7545 1.92969 55.4696 1.92969 36.6145C1.92969 17.7594 17.2146 2.47452 36.0697 2.47452C54.9248 2.47452 70.2097 17.7594 70.2097 36.6145Z" stroke="#1085C6" stroke-width="3"/>
<path d="M18.9676 43.7682C17.6596 43.7682 17.6596 41.7402 18.9676 41.7402C20.2742 41.7402 20.2742 43.7682 18.9676 43.7682ZM20.3569 40.2309H18.6889C17.3609 40.2309 16.2849 41.1936 16.2849 42.3802V48.5909C16.2849 49.7776 17.3609 50.7402 18.6889 50.7402H20.3569C21.6849 50.7402 22.7609 49.7776 22.7609 48.5909V42.3802C22.7609 41.1936 21.6849 40.2309 20.3569 40.2309Z" fill="#1085C6"/>
<path d="M21.4122 39.2252C19.7855 39.4425 18.9589 39.1439 17.9962 38.4132C17.4642 38.0065 16.9722 37.6145 16.8282 36.8265C16.6615 35.9252 16.8335 35.3759 17.7575 35.4092C18.5722 35.4385 19.3882 35.4145 20.2042 35.4145C20.9349 35.4105 21.6669 35.4479 22.3935 35.4012C23.2615 35.3452 23.6202 35.7212 23.6322 36.7612C23.6522 38.8412 24.0682 40.4719 21.4122 39.2252ZM18.9669 43.7679C17.6589 43.7679 17.6589 41.7399 18.9669 41.7399C20.2749 41.7399 20.2749 43.7679 18.9669 43.7679ZM20.2415 27.3919C20.2949 27.1532 20.3455 26.9119 20.4042 26.6732C21.2655 23.1919 21.7762 22.5412 24.8989 22.3745C31.0975 22.0425 37.3029 21.9585 43.5069 22.3625C44.5495 22.4292 45.2015 22.9132 45.4655 24.1012C45.7322 25.2999 46.0189 26.4945 46.3522 27.6705C46.6989 28.8972 46.2175 29.1265 45.2749 29.0745C41.8735 28.8865 38.4722 28.6332 35.2029 28.8092C30.4882 28.5972 25.9269 29.1545 21.3535 29.0879C19.9202 29.0665 19.8749 29.0199 20.2415 27.3919ZM36.6349 41.9799C36.6349 40.9359 36.7762 39.9199 37.0415 38.9492C35.7842 39.1799 34.5255 39.4425 33.2829 39.4425C31.0455 39.4425 28.8575 38.5532 26.6215 38.6132C25.5509 38.6412 25.1802 38.1639 25.1882 36.9572C25.1949 35.8172 25.5335 35.3839 26.5482 35.3932C30.5895 35.4305 34.6322 35.4359 38.6735 35.4039C40.8189 32.2425 44.4402 30.1332 48.4802 30.1332C49.1362 30.1332 49.7815 30.1919 50.4122 30.2985C50.7989 29.4785 51.9095 29.5292 52.6349 29.0785C53.6935 28.4212 53.8535 26.7065 52.9242 26.0119C51.5415 24.9812 49.5682 25.4372 48.6482 27.0985C47.8042 25.6412 47.3909 24.0225 46.8202 22.4945C46.1549 20.7172 45.1095 19.8185 43.3335 19.8345C36.9962 19.8932 30.6602 19.7399 24.3242 20.1105C20.6349 20.3265 20.6255 20.2119 19.2295 24.2372C18.8002 25.4799 18.3975 26.7345 17.8895 28.2625C17.4789 25.5652 16.9522 25.1559 14.8655 25.6012C14.7389 25.6279 14.6149 25.6719 14.4882 25.6999C13.7695 25.8639 13.1362 26.1559 13.0589 27.1359C12.9762 28.1692 13.4749 28.8225 14.2322 29.2292C14.8162 29.5425 15.4255 29.8012 16.0362 30.0385C16.7669 30.3239 16.8335 30.7519 16.4349 31.4799C15.8869 32.4799 15.2375 33.4585 15.1322 34.6825C14.8589 37.8399 14.7695 41.0025 15.1189 44.1625C15.2135 45.0172 15.4935 45.6785 16.3575 45.7772C18.7589 46.0519 21.1535 46.4065 23.5589 46.6145C28.2922 47.0212 33.0322 47.0545 37.7735 46.9825C37.0455 45.4559 36.6349 43.7585 36.6349 41.9799Z" fill="#1085C6"/>
<path d="M59.4683 42.1374C59.4683 48.0867 54.6456 52.9094 48.6976 52.9094C42.7483 52.9094 37.9256 48.0867 37.9256 42.1374C37.9256 36.1894 42.7483 31.3667 48.6976 31.3667C54.6456 31.3667 59.4683 36.1894 59.4683 42.1374Z" stroke="#1085C6" stroke-width="0.756"/>
<path d="M55.8582 43.3431H49.7489V49.4524H47.7409V43.3431H41.6329V41.4084H47.7409V35.2991H49.7489V41.4084H55.8582V43.3431Z" fill="#1085C6"/>
</svg>
