<svg width="32" height="23" viewBox="0 0 32 23" fill="none" xmlns="http://www.w3.org/2000/svg">
<path d="M4.70397 16.4485C3.8293 16.4485 3.8293 15.0912 4.70397 15.0912C5.57997 15.0912 5.57997 16.4485 4.70397 16.4485ZM5.63463 14.0819H4.5173C3.6293 14.0819 2.9093 14.7259 2.9093 15.5205V19.6752C2.9093 20.4699 3.6293 21.1139 4.5173 21.1139H5.63463C6.52263 21.1139 7.24263 20.4699 7.24263 19.6752V15.5205C7.24263 14.7259 6.52263 14.0819 5.63463 14.0819Z" fill="#707173"/>
<path d="M6.33994 13.4088C5.25194 13.5542 4.69861 13.3542 4.05461 12.8648C3.69861 12.5942 3.36794 12.3315 3.27194 11.8035C3.1626 11.2008 3.27727 10.8328 3.8946 10.8555C4.43994 10.8755 4.98527 10.8595 5.53194 10.8595C6.01994 10.8568 6.50927 10.8808 6.99727 10.8502C7.57727 10.8128 7.81727 11.0648 7.82527 11.7595C7.83994 13.1515 8.11727 14.2422 6.33994 13.4088ZM4.70394 16.4488C3.82927 16.4488 3.82927 15.0915 4.70394 15.0915C5.57994 15.0915 5.57994 16.4488 4.70394 16.4488ZM5.55727 5.49151C5.59194 5.33151 5.62527 5.17017 5.66527 5.01017C6.24127 2.68084 6.58394 2.24484 8.67327 2.13417C12.8199 1.91151 16.9733 1.85551 21.1226 2.12617C21.8213 2.17017 22.2573 2.49417 22.4346 3.28884C22.6133 4.09151 22.8039 4.89017 23.0266 5.67817C23.2599 6.49817 22.9373 6.65151 22.3079 6.61684C20.0319 6.49151 17.7559 6.32217 15.5679 6.43951C12.4133 6.29817 9.35994 6.67017 6.30127 6.62617C5.34127 6.6115 5.31194 6.57951 5.55727 5.49151ZM16.5253 15.2515C16.5253 14.5528 16.6213 13.8728 16.7973 13.2235C15.9559 13.3782 15.1146 13.5542 14.2826 13.5542C12.7853 13.5542 11.3213 12.9595 9.82527 12.9982C9.1106 13.0182 8.86127 12.6982 8.8666 11.8902C8.8706 11.1288 9.09727 10.8382 9.77727 10.8448C12.4813 10.8702 15.1853 10.8728 17.8906 10.8515C19.3253 8.73684 21.7493 7.32617 24.4519 7.32617C24.8906 7.32617 25.3226 7.36484 25.7439 7.43684C26.0026 6.88751 26.7466 6.92084 27.2306 6.61951C27.9399 6.17951 28.0466 5.03151 27.4239 4.56751C26.4999 3.87817 25.1786 4.18351 24.5639 5.29417C23.9999 4.32084 23.7226 3.23684 23.3399 2.21417C22.8959 1.02484 22.1959 0.423507 21.0079 0.434174C16.7679 0.472841 12.5279 0.371507 8.28794 0.619507C5.8186 0.763507 5.81327 0.687506 4.87994 3.38084C4.59194 4.21151 4.3226 5.05151 3.9826 6.07417C3.70794 4.26884 3.35594 3.99417 1.95994 4.29284C1.8746 4.31017 1.79194 4.33951 1.7066 4.35951C1.2266 4.46751 0.802605 4.66351 0.750605 5.31951C0.695938 6.01151 1.02927 6.44884 1.53594 6.72084C1.9266 6.93017 2.3346 7.10351 2.74394 7.26217C3.23194 7.45284 3.27727 7.73951 3.00927 8.22617C2.6426 8.8955 2.20794 9.55017 2.13727 10.3702C1.9546 12.4822 1.89594 14.5982 2.12927 16.7115C2.19194 17.2835 2.3786 17.7262 2.95727 17.7928C4.56394 17.9755 6.16794 18.2142 7.77727 18.3528C10.9439 18.6248 14.1159 18.6475 17.2866 18.5995C16.7999 17.5782 16.5253 16.4422 16.5253 15.2515Z" fill="#707173"/>
<path d="M26.1602 14.554C26.1522 14.5713 26.1455 14.59 26.1375 14.6073C26.0669 14.5767 25.9829 14.5593 25.9309 14.51C25.9042 14.4847 25.9282 14.398 25.9389 14.3407C25.9562 14.2487 25.9802 14.158 26.0015 14.066C25.9135 14.0807 25.8242 14.0953 25.7362 14.1113C25.7242 14.114 25.7135 14.1233 25.7002 14.1273C25.5842 14.1673 25.5055 14.1047 25.5042 13.978C25.5015 13.8753 25.4869 13.774 25.4775 13.6713C25.3922 13.7233 25.3002 13.7687 25.2215 13.8287C25.1055 13.9167 25.0002 13.8847 24.9669 13.7407C24.9549 13.69 24.9509 13.6353 24.9282 13.5887C24.9082 13.5487 24.8629 13.4873 24.8362 13.4913C24.7909 13.498 24.7335 13.538 24.7122 13.5807C24.5389 13.9087 24.5282 13.91 24.3109 13.6287C24.2802 13.59 24.2242 13.5727 24.1789 13.5447C24.1495 13.5953 24.1095 13.642 24.0935 13.6967C24.0775 13.7447 24.0909 13.8007 24.0842 13.8527C24.0709 13.986 23.9869 14.0113 23.8775 13.97C23.8295 13.9513 23.7949 13.902 23.7482 13.8833C23.6935 13.8593 23.6335 13.8553 23.5762 13.842C23.5682 13.9047 23.5415 13.9727 23.5575 14.0287C23.6469 14.33 23.6135 14.37 23.3042 14.3073C23.2789 14.3033 23.2495 14.2887 23.2282 14.294C23.1882 14.306 23.1362 14.322 23.1189 14.354C23.1029 14.382 23.1149 14.4393 23.1335 14.4713C23.1682 14.526 23.2189 14.5687 23.2602 14.6207C23.3322 14.7127 23.2935 14.826 23.1802 14.8513C23.1349 14.8607 23.0842 14.8513 23.0442 14.8687C22.9855 14.894 22.9349 14.9353 22.8802 14.97C22.9162 15.0153 22.9509 15.0647 22.9935 15.1073C23.0149 15.1287 23.0495 15.138 23.0762 15.1567C23.2242 15.2473 23.2162 15.3513 23.0709 15.4447C22.9975 15.4927 22.9442 15.57 22.8815 15.634C22.9575 15.6673 23.0322 15.702 23.1069 15.7353C23.1189 15.7407 23.1335 15.7393 23.1469 15.742C23.3082 15.774 23.3429 15.8687 23.2389 15.998C23.2015 16.0447 23.1575 16.0847 23.1282 16.1353C23.1109 16.162 23.1015 16.2127 23.1162 16.234C23.1375 16.266 23.1815 16.2953 23.2175 16.2993C23.2615 16.3047 23.3069 16.2713 23.3509 16.2727C23.4269 16.2753 23.5215 16.2687 23.5722 16.31C23.6042 16.3353 23.5709 16.4407 23.5682 16.5113C23.5669 16.5873 23.5669 16.6647 23.5655 16.742C23.6442 16.7207 23.7242 16.6993 23.8015 16.6727C23.8269 16.6647 23.8442 16.642 23.8669 16.6287C23.9655 16.5687 24.0762 16.622 24.0869 16.7393C24.0949 16.8113 24.0815 16.8847 24.0962 16.954C24.1215 17.0753 24.1975 17.0833 24.2789 17.0073C24.3242 16.9633 24.3509 16.8993 24.3882 16.846C24.4749 16.7287 24.5909 16.7407 24.6549 16.874C24.6762 16.9207 24.6869 16.9753 24.7162 17.0167C24.7429 17.0527 24.7962 17.1033 24.8242 17.0953C24.8669 17.0847 24.9015 17.0313 24.9322 16.9913C24.9495 16.966 24.9455 16.926 24.9615 16.898C24.9962 16.838 25.0269 16.7487 25.0775 16.7327C25.1269 16.718 25.2002 16.7793 25.2602 16.8113C25.3295 16.8473 25.3975 16.8887 25.4655 16.9273C25.4829 16.8527 25.5002 16.7767 25.5162 16.702C25.5322 16.6273 25.5229 16.5207 25.5695 16.4847C25.6122 16.4513 25.7135 16.4967 25.7882 16.5047C25.8602 16.5127 25.9335 16.518 26.0055 16.5247C25.9962 16.454 25.9895 16.3833 25.9775 16.3127C25.9642 16.2327 25.9069 16.1247 25.9389 16.0793C25.9762 16.0287 26.0922 16.0393 26.1735 16.0193C26.2349 16.0033 26.2949 15.9793 26.3549 15.9607C26.3282 15.902 26.3082 15.842 26.2749 15.7887C26.2562 15.758 26.2149 15.7393 26.1869 15.714C26.0762 15.6153 26.0975 15.4967 26.2349 15.45C26.2962 15.4287 26.3655 15.4247 26.4215 15.3927C26.5175 15.338 26.5269 15.2647 26.4215 15.2033C26.3829 15.1807 26.3309 15.1793 26.2949 15.154C26.2309 15.1113 26.1455 15.066 26.1269 15.0047C26.1149 14.962 26.2015 14.8913 26.2402 14.8313C26.2815 14.7673 26.3175 14.7007 26.3562 14.6353C26.2909 14.6087 26.2255 14.582 26.1602 14.554ZM27.6575 20.302C27.6215 20.2473 27.6042 20.2207 27.5855 20.194C26.9295 19.29 26.2709 18.386 25.6175 17.478C25.5349 17.362 25.4535 17.3873 25.3509 17.4193C24.8882 17.57 24.4229 17.562 23.9629 17.4153C23.8335 17.3753 23.7682 17.3953 23.6909 17.5047C23.2202 18.1647 22.7415 18.818 22.2655 19.474C22.0695 19.7433 21.8762 20.014 21.6695 20.2993C23.6709 21.3553 25.6469 21.3567 27.6575 20.302ZM19.2682 12.9993C20.4162 13.3727 21.5509 13.742 22.6882 14.1113C23.0122 13.6393 23.4415 13.3233 23.9815 13.1687C24.1109 13.1313 24.1522 13.078 24.1509 12.942C24.1455 11.862 24.1482 10.7833 24.1482 9.70467C24.1482 9.64733 24.1415 9.59 24.1389 9.53133C21.8349 9.70467 19.9695 11.2807 19.2682 12.9993ZM30.0695 12.9993C29.2189 11.01 27.1922 9.65533 25.1909 9.54067V13.1207C25.8055 13.2713 26.2855 13.5993 26.6455 14.11C27.7869 13.7407 28.9202 13.3727 30.0695 12.9993ZM18.9402 13.978C18.4282 15.8393 19.0615 18.254 20.8389 19.6847C21.5375 18.7233 22.2362 17.7633 22.9389 16.798C22.5215 16.3313 22.3122 15.7993 22.3295 15.1793C22.3295 15.1327 22.2482 15.0567 22.1895 15.038C21.6709 14.862 21.1482 14.6953 20.6269 14.526C20.0682 14.3447 19.5109 14.1633 18.9402 13.978ZM26.3909 16.7967C27.0989 17.77 27.7962 18.7287 28.4935 19.6887C30.2802 18.2247 30.9015 15.8233 30.3909 13.998C30.3842 13.9967 30.3775 13.9913 30.3722 13.9927C29.2722 14.346 28.1722 14.6993 27.0749 15.0593C27.0362 15.0727 26.9922 15.1433 26.9935 15.186C27.0175 15.8007 26.8122 16.3273 26.3909 16.7967ZM28.4655 21.2633C28.2802 21.1393 28.1029 21.03 27.9375 20.9047C27.8495 20.838 27.7815 20.8273 27.6922 20.8887C27.6335 20.9287 27.5682 20.9727 27.5015 20.9847C27.1669 21.0393 27.1842 21.298 27.1735 21.5367C27.1562 21.9407 27.1589 21.942 26.7749 22.0367C26.5802 22.086 26.3869 22.1473 26.1895 22.1793C26.1202 22.1913 26.0229 22.146 25.9655 22.0967C25.8935 22.034 25.8335 21.946 25.7962 21.858C25.6962 21.622 25.5375 21.5833 25.2909 21.6047C25.0175 21.6287 24.8669 21.7167 24.7722 21.9833C24.6322 22.3807 24.6109 22.3727 24.2002 22.3313C24.0175 22.3127 23.8349 22.2913 23.6535 22.278C23.5215 22.27 23.4255 22.2287 23.4135 22.0807C23.4109 22.0607 23.3989 22.0433 23.3989 22.0247C23.3975 21.5807 23.1442 21.382 22.7322 21.346C22.6669 21.3393 22.5842 21.3567 22.5349 21.3953C22.4282 21.4807 22.3295 21.5807 22.2429 21.6873C22.1335 21.8207 22.0269 21.862 21.8629 21.7673C21.6322 21.634 21.3842 21.5287 21.1522 21.3953C21.0962 21.3633 21.0735 21.27 21.0442 21.2007C21.0322 21.174 21.0389 21.1327 21.0495 21.1047C21.2282 20.6727 21.0309 20.406 20.6615 20.218C20.6135 20.1927 20.5402 20.182 20.4909 20.1993C20.3562 20.2473 20.2202 20.302 20.0989 20.3753C19.9309 20.4767 19.8135 20.43 19.6975 20.2913C19.5335 20.0967 19.3642 19.9047 19.1882 19.7207C19.1015 19.6313 19.1042 19.554 19.1669 19.462C19.1815 19.4407 19.1909 19.414 19.2069 19.394C19.4562 19.0927 19.4855 18.8007 19.2029 18.4913C19.1215 18.402 19.0682 18.3247 18.9375 18.354C18.9122 18.3593 18.8855 18.3553 18.8602 18.3567C18.3229 18.39 18.3229 18.39 18.1255 17.8967C17.8869 17.3033 17.8842 17.3007 18.3869 16.9007C18.4775 16.8287 18.4869 16.7593 18.4842 16.6527C18.4722 16.2473 18.2949 15.9993 17.8775 15.9553C17.6895 15.9367 17.6269 15.822 17.6322 15.6473C17.6415 15.374 17.6402 15.0993 17.6589 14.826C17.6615 14.7727 17.7202 14.7007 17.7709 14.678C17.9269 14.6113 18.0962 14.5753 18.2495 14.5047C18.3162 14.4727 18.3762 14.3927 18.4055 14.322C18.5669 13.9327 18.4549 13.6407 18.0815 13.442C17.9322 13.3607 17.9109 13.238 17.9815 13.0807C18.0842 12.8473 18.1709 12.6073 18.2602 12.3687C18.3015 12.258 18.3642 12.2007 18.4935 12.2167C18.6349 12.234 18.7802 12.2233 18.9229 12.2433C19.0589 12.262 19.1242 12.206 19.2055 12.0993C19.4322 11.806 19.5029 11.5313 19.2269 11.23C19.0749 11.0647 19.1135 10.914 19.2749 10.7633C19.4375 10.6127 19.5815 10.442 19.7269 10.274C19.8242 10.1647 19.9215 10.102 20.0589 10.2033C20.0695 10.2113 20.0842 10.2113 20.0949 10.218C20.4389 10.4713 20.7469 10.4233 21.0175 10.1033C21.0642 10.0473 21.1055 9.97 21.1095 9.89933C21.1162 9.798 21.0842 9.694 21.0695 9.59C21.0109 9.17266 20.9922 9.28733 21.3135 9.09933C21.5162 8.98067 21.7322 8.886 21.9495 8.79667C22.0042 8.774 22.1002 8.79267 22.1482 8.83133C22.2709 8.92733 22.3762 9.046 22.4882 9.15533C22.5162 9.18333 22.5389 9.21667 22.5695 9.24066C22.6802 9.322 23.2775 9.10467 23.3095 8.97267C23.3335 8.87133 23.3495 8.76867 23.3749 8.666C23.4549 8.338 23.4549 8.33267 23.7842 8.29667C24.0122 8.27133 24.2415 8.266 24.4682 8.246C24.5762 8.23533 24.6375 8.27 24.6789 8.37267C24.7402 8.53133 24.8055 8.69 24.8869 8.838C24.9175 8.89133 24.9962 8.918 25.0535 8.95667C25.0589 8.96067 25.0669 8.95667 25.0735 8.958C25.4895 9.08467 25.7629 8.926 25.9309 8.538C25.9909 8.39933 26.0935 8.358 26.2455 8.41C26.5055 8.49667 26.7709 8.57133 27.0349 8.642C27.1455 8.67133 27.1802 8.73267 27.1775 8.83933C27.1749 8.93667 27.2069 9.03667 27.1909 9.13267C27.1509 9.402 27.2829 9.53533 27.5202 9.614C27.6242 9.64867 27.7175 9.71533 27.8162 9.766C27.9789 9.65933 28.1455 9.55667 28.3055 9.44333C28.4082 9.37 28.4935 9.358 28.6015 9.44067C28.8135 9.60467 29.0309 9.76066 29.2495 9.914C29.3549 9.98733 29.3962 10.0647 29.3389 10.194C29.2762 10.3367 29.2402 10.4913 29.1802 10.6367C29.1389 10.7353 29.1789 10.7913 29.2322 10.8753C29.4655 11.2433 29.7695 11.318 30.1549 11.1433C30.2975 11.0793 30.3962 11.126 30.4749 11.2647C30.6055 11.498 30.7495 11.7233 30.8949 11.9487C30.9575 12.0473 30.9602 12.1287 30.8749 12.21C30.8522 12.2327 30.8375 12.2673 30.8122 12.286C30.4535 12.5513 30.4855 12.87 30.6882 13.2087C30.7202 13.2647 30.7869 13.318 30.8495 13.3353C30.9669 13.3687 31.0935 13.39 31.2162 13.3873C31.4349 13.3833 31.5322 13.482 31.5589 13.6927C31.5909 13.9313 31.6389 14.1687 31.6842 14.406C31.7055 14.522 31.6882 14.6127 31.5642 14.6593C31.5335 14.67 31.5095 14.6993 31.4789 14.7073C31.0442 14.8233 30.9629 15.1353 31.0322 15.5233C31.0429 15.5873 31.0962 15.65 31.1429 15.7007C31.1762 15.7367 31.2349 15.7487 31.2802 15.7753C31.8055 16.082 31.7162 15.902 31.6362 16.5047C31.5482 17.1713 31.5335 17.1687 30.8495 17.2513C30.8295 17.254 30.8095 17.2513 30.7909 17.2567C30.6602 17.2953 30.4695 17.9007 30.5562 18.0073C30.6602 18.134 30.7789 18.2487 30.8682 18.3847C30.9082 18.446 30.9295 18.5633 30.8975 18.622C30.7495 18.89 30.5829 19.1487 30.4149 19.406C30.3882 19.4433 30.3082 19.4713 30.2602 19.4633C30.1042 19.442 29.9429 19.4233 29.8015 19.362C29.6322 19.2887 29.5349 19.354 29.4442 19.4767C29.4215 19.5087 29.4095 19.5553 29.3789 19.574C29.0935 19.746 29.1789 19.9673 29.2709 20.2087C29.4002 20.554 29.3949 20.562 29.1002 20.7967C28.8962 20.958 28.6802 21.106 28.4655 21.2633Z" fill="#707173"/>
</svg>
