<svg width="45" height="40" viewBox="0 0 45 40" fill="none" xmlns="http://www.w3.org/2000/svg">
<path d="M40.4382 26.1978C40.4529 26.2098 40.4662 26.2218 40.4809 26.2338C40.3955 26.4872 40.3236 26.7458 40.2196 26.9912C39.2316 29.3272 37.7209 31.2898 35.7529 32.8618C30.6582 36.9312 24.7702 38.0925 18.4142 37.4285C17.2049 37.3018 16.0342 36.9672 14.8436 36.7352C15.0356 37.0112 15.3409 37.1378 15.6169 37.2965C19.6796 39.6218 24.0302 40.4098 28.6369 39.6258C38.6889 37.9165 45.8022 28.7525 44.7462 18.3872C44.7355 18.2725 44.7516 18.1298 44.5916 18.0872C44.4596 18.1472 44.4315 18.2792 44.3769 18.3872C42.7689 21.5938 40.2449 23.8298 36.9822 25.2325C32.7435 27.0565 28.3449 27.3258 23.8542 26.3912C21.2862 25.8552 18.9036 24.8818 16.8022 23.2778C16.2782 22.8765 16.2769 22.8058 16.7449 22.3338C17.4755 21.5978 18.2102 20.8658 18.9449 20.1352C19.2422 19.8378 19.5436 19.5378 19.4049 19.0672C19.2662 18.5978 18.8529 18.5032 18.4436 18.4125C16.5582 17.9965 14.6756 17.5792 12.7915 17.1632C9.24888 16.3818 5.70888 15.5965 2.16488 14.8232C1.23022 14.6192 0.775551 15.0392 0.968885 15.9285C2.16888 21.4272 3.37422 26.9245 4.58622 32.4192C4.79822 33.3698 5.48888 33.5645 6.18622 32.8832C6.92755 32.1592 7.65422 31.4205 8.38888 30.6885C8.94755 30.1325 8.95155 30.1312 9.57688 30.5725C12.2729 32.4645 15.3182 33.4645 18.5342 33.9152C20.9982 34.2592 23.4836 34.2298 25.9582 33.8445C30.4702 33.1432 34.5516 31.4845 38.0622 28.5125C38.9102 27.7965 39.6315 26.9525 40.4382 26.1978Z" fill="white"/>
<path d="M14.8431 36.735C16.0351 36.967 17.2044 37.3017 18.4151 37.4284C24.7698 38.0937 30.6578 36.931 35.7538 32.8617C37.7204 31.291 39.2311 29.327 40.2191 26.991C40.3231 26.7457 40.3951 26.487 40.4818 26.235C40.5124 26.1684 40.4991 26.1564 40.4378 26.1977C39.6311 26.9537 38.9098 27.7964 38.0618 28.5124C34.5511 31.4844 30.4711 33.1444 25.9578 33.8457C23.4831 34.2297 20.9978 34.259 18.5351 33.915C15.3178 33.4644 12.2724 32.4644 9.57777 30.5724C8.95111 30.131 8.94711 30.1324 8.38844 30.6884C7.65377 31.4204 6.92711 32.159 6.18577 32.883C5.48844 33.5644 4.79777 33.3697 4.58711 32.419C3.37377 26.9244 2.16844 21.427 0.969773 15.9297C0.775106 15.0404 1.22977 14.619 2.16444 14.823C5.70844 15.5964 9.24977 16.3817 12.7911 17.163C14.6751 17.579 16.5578 17.9964 18.4431 18.4124C18.8524 18.503 19.2658 18.5977 19.4044 19.067C19.5431 19.539 19.2418 19.839 18.9444 20.135C18.2098 20.8657 17.4764 21.5977 16.7458 22.3337C16.2764 22.8057 16.2778 22.8764 16.8031 23.2777C18.9031 24.8817 21.2858 25.855 23.8551 26.391C28.3444 27.3257 32.7431 27.0564 36.9818 25.2337C40.2458 23.8297 42.7684 21.595 44.3764 18.387C44.4311 18.279 44.4591 18.147 44.5924 18.087C44.7524 18.1297 44.7351 18.2724 44.7471 18.387C45.8031 28.7524 38.6884 37.9164 28.6378 39.6257C24.0311 40.4097 19.6791 39.623 15.6164 37.2964C15.3404 37.1377 15.0364 37.0124 14.8431 36.735Z" fill="white"/>
<path d="M14.45 10.5782V10.5795C14.8967 10.5795 15.3434 10.5662 15.79 10.5835C16.1794 10.5995 16.4207 10.4475 16.5727 10.0808C17.226 8.50216 18.0754 7.03949 19.1914 5.73816C19.2647 5.65149 19.41 5.55549 19.2887 5.42483C19.2074 5.33682 19.086 5.41549 18.9914 5.45683C16.5247 6.50083 14.4554 8.07682 12.7567 10.1435C12.542 10.4075 12.5914 10.5715 12.9487 10.5768C13.4487 10.5835 13.95 10.5782 14.45 10.5782ZM31.318 5.39816C31.334 5.45416 31.3327 5.51549 31.362 5.54882C32.5873 6.92349 33.482 8.49816 34.1913 10.1862C34.3233 10.5022 34.5634 10.5835 34.874 10.5808C35.7847 10.5768 36.694 10.5822 37.6033 10.5782C37.758 10.5768 37.958 10.6302 38.0473 10.4688C38.1593 10.2662 37.9553 10.1448 37.85 10.0182C36.2087 8.05416 34.2247 6.54482 31.8794 5.51949C31.7113 5.44482 31.5434 5.30616 31.318 5.39816ZM21.438 10.5808C22.242 10.5808 23.0447 10.5688 23.8487 10.5848C24.3047 10.5942 24.4953 10.4048 24.4887 9.94882C24.4753 9.05549 24.486 8.16349 24.486 7.27149C24.486 6.50349 24.4834 5.73682 24.4807 4.96882C24.4794 4.56483 24.294 4.42082 23.8967 4.54082C23.4834 4.66483 23.0887 4.82882 22.7194 5.04883C20.7327 6.22616 19.4887 8.02616 18.534 10.0675C18.3434 10.4742 18.5687 10.5782 18.922 10.5795C19.7607 10.5795 20.5994 10.5795 21.438 10.5808ZM29.2954 10.5782V10.5808C30.0807 10.5808 30.866 10.5862 31.6514 10.5795C32.306 10.5742 32.3727 10.4675 32.106 9.89949C31.618 8.86082 31.026 7.88349 30.2807 7.01016C29.354 5.92083 28.298 5.00082 26.8967 4.56616C26.3794 4.40616 26.2354 4.50083 26.2314 5.04216C26.2194 6.68483 26.23 8.32749 26.2234 9.96882C26.2207 10.3942 26.3954 10.5902 26.8314 10.5822C27.6514 10.5688 28.474 10.5782 29.2954 10.5782ZM30.2034 19.4968C31.3113 19.4968 32.418 19.5008 33.5247 19.4942C34.178 19.4902 34.2647 19.4008 34.246 18.7382C34.2367 18.4195 34.1727 18.1022 34.15 17.7822C34.0367 16.1382 33.754 14.5288 33.2847 12.9475C33.1634 12.5382 32.9433 12.3782 32.5167 12.3808C30.6434 12.3955 28.7674 12.3968 26.894 12.3822C26.4167 12.3795 26.218 12.5555 26.2207 13.0408C26.2327 14.9688 26.2313 16.8968 26.2194 18.8248C26.2167 19.2982 26.4007 19.5062 26.8847 19.4995C27.99 19.4848 29.0967 19.4942 30.2034 19.4968ZM30.23 21.2968C29.1234 21.2968 28.0154 21.3128 26.9074 21.2888C26.39 21.2782 26.206 21.4915 26.2194 21.9888C26.2407 22.7742 26.218 23.5608 26.2207 24.3475C26.2234 24.8235 26.006 24.9982 25.5434 24.8835C25.3887 24.8448 25.226 24.8355 25.0674 24.8115C24.678 24.7488 24.474 24.5515 24.4834 24.1262C24.5007 23.3942 24.4754 22.6608 24.4874 21.9288C24.4953 21.4755 24.31 21.2808 23.8487 21.2915C23.01 21.3075 22.17 21.2862 21.33 21.2968C20.9207 21.3008 20.79 21.1915 21.0487 20.8102C21.1687 20.6355 21.2874 20.4355 21.318 20.2315C21.4207 19.5888 21.8127 19.4488 22.3927 19.4888C22.9087 19.5248 23.4274 19.4915 23.946 19.4915C24.2967 19.4915 24.478 19.3222 24.478 18.9688C24.478 16.9502 24.478 14.9315 24.478 12.9115C24.478 12.5595 24.31 12.3888 23.9527 12.3888C21.9874 12.3928 20.0234 12.3955 18.058 12.3888C17.6754 12.3875 17.5274 12.6128 17.4354 12.9315C17.21 13.7222 16.9967 14.5168 16.8727 15.3302C16.802 15.7982 16.5834 15.9088 16.1354 15.8088C15.0194 15.5622 15.0127 15.5768 15.2487 14.4608C15.3554 13.9542 15.4674 13.4488 15.594 12.9462C15.686 12.5915 15.6074 12.3888 15.202 12.3902C14.006 12.3928 12.81 12.3942 11.6127 12.3915C11.33 12.3915 11.134 12.5115 11.014 12.7622C10.83 13.1502 10.6287 13.5302 10.474 13.9275C10.3167 14.3302 10.0887 14.4835 9.65002 14.3675C9.04602 14.2088 8.42868 14.1035 7.81935 13.9635C7.08335 13.7942 7.04202 13.7168 7.32068 13.0288C8.08068 11.1608 9.10602 9.44749 10.406 7.90749C13.6434 4.07149 17.7607 1.71816 22.7234 1.07416C31.7634 -0.0991745 40.0513 4.81016 43.4647 13.1928C43.7953 14.0048 43.7593 14.8435 43.5887 15.6688C43.3487 16.8115 42.7407 17.7822 42.0273 18.6888C41.9314 18.8115 41.8393 19.0075 41.6673 18.9702C41.4753 18.9275 41.5233 18.7035 41.5047 18.5555C41.2647 16.6608 40.7353 14.8555 39.9073 13.1315C39.6367 12.5662 39.2887 12.3448 38.6647 12.3728C37.6473 12.4195 36.6287 12.3982 35.61 12.3848C35.1447 12.3782 35.0087 12.5502 35.1287 13.0048C35.6234 14.8728 35.926 16.7715 35.978 18.7088C35.9967 19.3555 36.1514 19.4902 36.7913 19.4942C38.006 19.5022 39.2207 19.4982 40.4353 19.5088C40.622 19.5102 40.882 19.4568 40.9593 19.6728C41.0393 19.8982 40.7753 19.9862 40.6487 20.1248C39.8327 21.0262 38.854 21.4968 37.606 21.3022C37.3273 21.2582 37.0353 21.2915 36.75 21.2968C36.1447 21.3062 36.0127 21.4382 35.9767 22.0582C35.9087 23.2075 35.6834 23.4622 34.558 23.7115C34.2714 23.7755 34.1393 23.6915 34.1527 23.4062C34.178 22.9435 34.2313 22.4822 34.2447 22.0195C34.262 21.3768 34.186 21.3008 33.5527 21.2982C32.446 21.2915 31.338 21.2968 30.23 21.2968Z" fill="white"/>
</svg>
