<svg width="44" height="45" viewBox="0 0 44 45" fill="none" xmlns="http://www.w3.org/2000/svg">
<path d="M20.5208 18.5709H17.7315V16.4749H24.2288C24.2288 16.7242 24.2262 16.9669 24.2288 17.2096C24.2635 20.8136 24.2822 24.4176 24.3462 28.0216C24.3582 28.6816 24.4742 29.3642 24.6768 29.9922C25.4715 32.4509 27.4982 33.5509 30.2955 33.2322C33.7248 32.8416 36.1768 30.8336 37.9022 28.0109C40.9888 22.9589 41.0502 17.6136 38.5368 12.3856C35.6222 6.3189 30.5435 3.02289 23.8902 2.33623C14.1875 1.33489 6.91951 7.95623 4.80884 16.1296C3.01551 23.0749 4.04084 29.6176 8.37418 35.4509C10.9395 38.9056 14.5955 40.7442 18.6862 41.7336C25.1008 43.2856 31.1968 42.4456 36.9102 39.0789C36.9968 39.0282 37.0902 38.9856 37.2448 38.9056C37.5395 39.4349 37.8195 39.9389 38.1595 40.5536C37.1862 41.0762 36.2768 41.6269 35.3168 42.0669C30.2875 44.3762 25.0062 45.0069 19.5448 44.3682C16.7582 44.0429 14.0715 43.3389 11.5275 42.1469C5.78884 39.4562 2.38084 34.8696 0.951509 28.8002C-0.691157 21.8282 0.343509 15.2762 4.68084 9.47223C8.65951 4.14823 14.1288 1.24556 20.6675 0.349562C25.8408 -0.359771 30.7622 0.476227 35.2008 3.30023C41.4502 7.27756 44.3155 13.1149 43.8995 20.4416C43.4542 28.2962 37.8288 34.2256 30.0262 35.3842C28.4128 35.6256 26.8088 35.5816 25.2328 35.1189C22.4075 34.2896 20.7382 32.3002 20.6342 29.3656C20.5182 26.0576 20.5515 22.7442 20.5208 19.4336C20.5182 19.1842 20.5208 18.9349 20.5208 18.5709Z" fill="#0A71B3"/>
<path d="M24.7579 10.5547C24.7606 12.2453 23.5166 13.5227 21.8592 13.5293C20.2112 13.5373 18.9099 12.2547 18.8819 10.6C18.8539 8.92665 20.1606 7.60532 21.8446 7.60265C23.5126 7.59999 24.7552 8.85732 24.7579 10.5547Z" fill="#0A71B3"/>
</svg>
