<svg width="111" height="76" viewBox="0 0 111 76" fill="none" xmlns="http://www.w3.org/2000/svg">
<path d="M103.246 48.6093C103.246 60.3399 93.6855 69.8506 81.8935 69.8506C70.1015 69.8506 60.5415 60.3399 60.5415 48.6093C60.5415 36.8786 70.1015 27.3679 81.8935 27.3679C93.6855 27.3679 103.246 36.8786 103.246 48.6093Z" fill="#ECECED"/>
<path d="M49.4363 47.5032C49.4363 59.2338 39.8763 68.7445 28.0843 68.7445C16.2923 68.7445 6.7323 59.2338 6.7323 47.5032C6.7323 35.7712 16.2923 26.2618 28.0843 26.2618C39.8763 26.2618 49.4363 35.7712 49.4363 47.5032Z" fill="#ECECED"/>
<path d="M47.7266 48.806C47.476 51.2074 46.8266 53.4847 45.776 55.6367C44.7253 57.7874 43.348 59.6647 41.6466 61.2647C39.9466 62.866 37.9573 64.13 35.68 65.0554C33.404 65.9807 30.94 66.4434 28.288 66.4434C25.636 66.4434 23.196 65.9314 20.9706 64.9047C18.744 63.8794 16.8053 62.4914 15.1546 60.7394C13.5026 58.9887 12.2146 56.9487 11.2893 54.622C10.3626 52.2967 9.89996 49.8074 9.89996 47.1554C9.89996 44.5034 10.3626 42.002 11.2893 39.65C12.2146 37.2994 13.5026 35.2354 15.1546 33.4581C16.8053 31.6834 18.744 30.2807 20.9706 29.2554C23.196 28.2301 25.636 27.7167 28.288 27.7167C30.94 27.7167 33.4413 28.2301 35.7933 29.2554C38.144 30.2807 40.208 31.6447 41.9853 33.3461C43.76 35.0474 45.1626 37.0114 46.188 39.2367C47.2133 41.4647 47.7266 43.7781 47.7266 46.1794V48.806ZM51.672 47.5034C51.672 43.2087 52.6573 38.9874 54.4906 35.1647C52.964 32.0434 50.9626 29.2954 48.4773 26.9287C45.8746 24.4514 42.848 22.5007 39.396 21.074C35.944 19.6487 32.24 18.9354 28.288 18.9354C24.3346 18.9354 20.6573 19.662 17.2546 21.1114C13.852 22.5634 10.888 24.5527 8.36263 27.0794C5.83463 29.6061 3.84529 32.5954 2.39463 36.0474C0.943961 39.5007 0.218628 43.2034 0.218628 47.1554C0.218628 51.1087 0.943961 54.786 2.39463 58.1874C3.84529 61.5914 5.83463 64.5554 8.36263 67.082C10.888 69.6087 13.852 71.598 17.2546 73.0487C20.6573 74.5007 24.3346 75.2247 28.288 75.2247C32.2906 75.2247 35.856 74.6114 38.9826 73.386C42.1093 72.1607 45.0253 70.446 47.7266 68.2447L58.5573 75.274L58.136 65.582C53.9906 60.514 51.672 54.0954 51.672 47.5034Z" fill="#F19300"/>
<path d="M110.865 19.9894H101.171V0.440063H110.865V19.9894Z" fill="#F19300"/>
<path d="M101.182 45.6466C100.931 43.2452 100.28 40.9812 99.2297 38.8546C98.179 36.7292 96.803 34.8652 95.1017 33.2626C93.4004 31.6626 91.4244 30.3986 89.1737 29.4732C86.9217 28.5479 84.4697 28.0839 81.8177 28.0839C79.1657 28.0839 76.7137 28.5986 74.463 29.6226C72.211 30.6492 70.2604 32.0506 68.6084 33.8266C66.9577 35.6026 65.6684 37.6666 64.743 40.0172C63.8177 42.3692 63.355 44.8706 63.355 47.5226C63.355 50.1759 63.8177 52.6639 64.743 54.9906C65.6684 57.3172 66.9577 59.3692 68.6084 61.1452C70.2604 62.9212 72.211 64.3226 74.463 65.3479C76.7137 66.3732 79.1657 66.8866 81.8177 66.8866C84.4697 66.8866 86.971 66.3732 89.323 65.3479C91.675 64.3226 93.7257 62.9586 95.4777 61.2572C97.2284 59.5572 98.6164 57.5799 99.643 55.3279C100.668 53.0772 101.182 50.7506 101.182 48.3479V45.6466ZM81.8177 19.3039C85.8204 19.3039 89.3857 19.9292 92.5137 21.1799C95.639 22.4306 98.5284 24.1572 101.182 26.3586V19.3039H110.863V47.5226V48.3479C110.662 52.1012 109.787 55.6412 108.236 58.9679C106.684 62.2959 104.608 65.1972 102.007 67.6746C99.4044 70.1506 96.3777 72.1026 92.9257 73.5279C89.4737 74.9546 85.7697 75.6679 81.8177 75.6679C78.0657 75.6679 74.5004 74.9426 71.123 73.4906C67.7457 72.0399 64.755 70.0519 62.1537 67.5239C59.5524 64.9986 57.4884 62.0212 55.9617 58.5932C54.435 55.1666 53.6737 51.4759 53.6737 47.5226C53.6737 43.5706 54.435 39.8679 55.9617 36.4159C57.4884 32.9626 59.5524 29.9732 62.1537 27.4466C64.755 24.9212 67.7457 22.9319 71.123 21.4799C74.5004 20.0292 78.0657 19.3039 81.8177 19.3039Z" fill="#F19300"/>
<path d="M74.9555 44.8424C74.9151 44.4347 74.7415 44.1179 74.4349 43.8922C74.1283 43.6664 73.7122 43.5536 73.1866 43.5536C72.8294 43.5536 72.5279 43.6041 72.2819 43.7052C72.0359 43.8029 71.8472 43.9394 71.7158 44.1146C71.5878 44.2898 71.5238 44.4886 71.5238 44.711C71.517 44.8963 71.5558 45.058 71.64 45.1961C71.7276 45.3343 71.8472 45.4539 71.9989 45.555C72.1505 45.6527 72.3257 45.7386 72.5245 45.8127C72.7233 45.8835 72.9356 45.9441 73.1613 45.9947L74.0912 46.2171C74.5427 46.3181 74.9572 46.4529 75.3345 46.6214C75.7119 46.7899 76.0388 46.9971 76.315 47.243C76.5913 47.489 76.8053 47.7788 76.9569 48.1123C77.1119 48.4459 77.1911 48.8283 77.1944 49.2596C77.1911 49.8931 77.0293 50.4423 76.7093 50.9072C76.3925 51.3688 75.9343 51.7277 75.3345 51.9838C74.7382 52.2365 74.0188 52.3628 73.1765 52.3628C72.3409 52.3628 71.6131 52.2348 70.9931 51.9787C70.3765 51.7226 69.8947 51.3436 69.5476 50.8415C69.204 50.3361 69.0237 49.7111 69.0069 48.9665H71.1245C71.1481 49.3135 71.2475 49.6033 71.4227 49.8358C71.6013 50.0649 71.8388 50.2384 72.1353 50.3563C72.4352 50.4709 72.7738 50.5282 73.1512 50.5282C73.5218 50.5282 73.8436 50.4743 74.1165 50.3665C74.3928 50.2586 74.6068 50.1087 74.7584 49.9166C74.91 49.7246 74.9858 49.5039 74.9858 49.2546C74.9858 49.0221 74.9167 48.8267 74.7786 48.6683C74.6438 48.5099 74.445 48.3752 74.1822 48.264C73.9228 48.1528 73.6044 48.0517 73.227 47.9607L72.0999 47.6777C71.2273 47.4654 70.5382 47.1335 70.0328 46.682C69.5274 46.2305 69.2764 45.6224 69.2798 44.8575C69.2764 44.2308 69.4432 43.6833 69.7801 43.2149C70.1204 42.7466 70.5871 42.381 71.1801 42.1182C71.7731 41.8554 72.447 41.724 73.2017 41.724C73.97 41.724 74.6405 41.8554 75.2133 42.1182C75.7894 42.381 76.2375 42.7466 76.5576 43.2149C76.8777 43.6833 77.0428 44.2258 77.0529 44.8424H74.9555ZM78.6664 52.2162V41.8655H85.6411V43.6698H80.8549V46.1362H85.2822V47.9405H80.8549V50.4119H85.6613V52.2162H78.6664ZM86.9867 43.6698V41.8655H95.4877V43.6698H92.3188V52.2162H90.1556V43.6698H86.9867Z" fill="#6F7072"/>
</svg>
