<svg width="45" height="46" viewBox="0 0 45 46" fill="none" xmlns="http://www.w3.org/2000/svg">
<path d="M44.4031 22.9688C44.3951 35.2008 34.4365 45.1194 22.1631 45.0901C10.0218 45.0621 0.0911459 35.2874 0.0378126 23.0154C-0.0155207 10.7008 9.86314 0.726086 22.2258 0.730083C34.7085 0.735416 44.4405 10.8501 44.4031 22.9688Z" fill="#E32121"/>
<path d="M30.9916 25.6921C29.3463 25.6907 27.7009 25.6907 26.0556 25.6921C25.1903 25.6921 24.8956 25.9814 24.8929 26.8347C24.8903 28.2601 24.8969 29.6854 24.8889 31.1107C24.8863 31.3787 24.9503 31.5921 25.1116 31.8147C25.9049 32.9201 25.7409 34.3241 24.7409 35.2254C23.7729 36.0974 22.3329 36.1014 21.3436 35.2347C20.3743 34.3867 20.1876 32.9561 20.9289 31.8627C21.1009 31.6081 21.1796 31.3641 21.1756 31.0561C21.1623 29.6321 21.1743 28.2054 21.1689 26.7801C21.1663 25.9867 20.8729 25.6974 20.0756 25.6961C17.8836 25.6934 15.6903 25.6921 13.4969 25.6947C12.7249 25.6947 12.3956 26.0147 12.3916 26.7907C12.3823 28.2347 12.3943 29.6787 12.3836 31.1227C12.3809 31.3787 12.4703 31.5681 12.6143 31.7707C13.4196 32.9041 13.2703 34.3401 12.2676 35.2334C11.2863 36.1094 9.8196 36.0947 8.82093 35.1987C7.84893 34.3281 7.71693 32.9027 8.5236 31.7747C8.68493 31.5521 8.74627 31.3347 8.74627 31.0681C8.74227 26.1147 8.74093 21.1627 8.7476 16.2094C8.7476 15.9187 8.66227 15.7014 8.49027 15.4681C7.69693 14.3907 7.86093 12.9521 8.8556 12.0507C9.77827 11.2134 11.2743 11.1921 12.2236 12.0014C13.2183 12.8534 13.4303 14.3334 12.6769 15.4147C12.4836 15.6894 12.4169 15.9534 12.4183 16.2734C12.4276 17.8267 12.4196 19.3801 12.4236 20.9334C12.4263 21.6907 12.6969 21.9681 13.4383 21.9694C15.6863 21.9721 17.9343 21.9721 20.1823 21.9694C20.8809 21.9681 21.1676 21.6734 21.1689 20.9614C21.1729 19.3534 21.1663 17.7454 21.1729 16.1361C21.1743 15.8894 21.1156 15.6921 20.9689 15.4827C20.1769 14.3481 20.3516 12.9107 21.3663 12.0241C22.3276 11.1854 23.8183 11.2054 24.7716 12.0694C25.7543 12.9601 25.8903 14.4347 25.0623 15.5387C24.9156 15.7347 24.8769 15.9147 24.8783 16.1361C24.8809 17.7267 24.8769 19.3161 24.8809 20.9067C24.8823 21.6787 25.1689 21.9694 25.9316 21.9707C28.1609 21.9734 30.3916 21.9721 32.6209 21.9694C33.3676 21.9681 33.6516 21.6894 33.6529 20.9574C33.6556 19.3121 33.6516 17.6681 33.6569 16.0227C33.6583 15.7961 33.6023 15.6147 33.4703 15.4201C32.7183 14.3014 32.9169 12.8561 33.9196 12.0094C34.9076 11.1761 36.3916 11.2107 37.3196 12.0881C38.3129 13.0267 38.4383 14.4547 37.5809 15.5521C37.4023 15.7827 37.3823 15.9987 37.3823 16.2521C37.3823 18.9761 37.3836 21.6987 37.3823 24.4227C37.3809 25.2374 36.9649 25.6814 36.1449 25.6881C34.4263 25.7027 32.7089 25.6921 30.9916 25.6921Z" fill="white"/>
</svg>
